<?xml version="1.0" standalone="no"?><!DOCTYPE svg PUBLIC "-//W3C//DTD SVG 1.1//EN" "http://www.w3.org/Graphics/SVG/1.1/DTD/svg11.dtd"><svg t="1726234246011" class="icon" viewBox="0 0 1024 1024" version="1.1" xmlns="http://www.w3.org/2000/svg" p-id="19704" xmlns:xlink="http://www.w3.org/1999/xlink" width="200" height="200"><path d="M512.45511147 425.07377813c-65.08088853-25.03111147-156.55822187-25.03111147-156.55822294-21.39022293 0 33.22311147 42.32533333 119.23911147 165.20533334 119.23911147s146.54577813-105.13066667 146.54577813-105.13066667-90.112 32.768-155.19288853 7.28177813z" fill="#33D6C4" p-id="19705"></path><path d="M526.5635552 566.61333333h-9.55733333l5.00622293-5.00622186 4.5511104 5.00622186z m-45.96622187-46.42133333H471.04l50.9724448 50.9724448 52.33777707-52.33777813h-10.01244374l-42.7804448 42.7804448-40.96-41.41511147z m36.40888854 46.42133333h9.55733333l-5.00622187-5.00622186-4.55111146 5.00622186z m-36.40888854-46.42133333H471.04l50.9724448 50.9724448 52.33777707-52.33777813h-10.01244374l-42.7804448 42.7804448-40.96-41.41511147z" fill="#D12C2C" p-id="19706"></path><path d="M520.192 559.78666667h6.82666667V744.10666667h-6.82666667z" fill="#D12C2C" p-id="19707"></path><path d="M476.50133333 772.77866667c10.4675552-15.92888853 28.21688853-26.3964448 48.69688854-26.3964448s38.6844448 10.4675552 48.6968896 26.3964448h-97.39377814z" fill="#FF5E5E" p-id="19708"></path><path d="M592.55466667 780.97066667c-15.92888853-20.93511147-40.50488853-33.22311147-67.3564448-33.22311147s-51.4275552 12.74311147-67.35644374 33.22311147h134.71288854z m-144.27022187 1.36533333c16.83911147-25.94133333 45.51111147-41.87022187 76.45866667-41.87022187s60.07466667 15.92888853 76.45866666 41.87022187l3.18577707 5.46133333h-159.28888853l3.18577813-5.46133333zM707.24266667 337.23733333l-0.45511147-2.73066666H326.31466667l-0.45511147 2.73066666c-2.2755552 15.01866667-1.36533333 30.03733333 2.27555627 45.056l10.01244373 40.04977814c15.01866667 60.98488853 69.632 103.31022187 132.43733333 103.31022186h91.9324448c62.80533333 0 117.41866667-42.32533333 132.43733334-103.31022186l10.0124448-40.04977814c2.2755552-9.10222187 3.64088853-18.6595552 3.64088853-28.21688853 0-5.46133333-0.45511147-10.92266667-1.36533333-16.83911147z m-144.72533334 181.58933334h-91.9324448c-59.6195552 0-111.50222187-40.50488853-125.61066666-98.304l-6.82666667-27.30666667c14.5635552-0.45511147 95.11822187-1.8204448 185.68533333 28.672 24.576 8.192 47.3315552 11.37777813 67.81155627 11.37777813 53.70311147 0 90.112-21.84533333 101.03466667-29.12711146l-4.096 16.384c-14.5635552 57.79911147-66.44622187 98.304-126.06577814 98.304zM698.5955552 380.47288853l-3.64088853 14.56355627 0.45511146-1.36533333-3.6408896 3.18577706c-0.45511147 0.45511147-67.3564448 52.33777813-165.66044373 19.11466667-95.11822187-32.31288853-179.31377813-29.58222187-189.78133333-29.1271104l-1.8204448-6.37155627c-3.18577813-13.19822187-4.096-26.3964448-2.73066667-39.1395552h368.64c0.45511147 4.096 0.91022187 8.64711147 0.91022187 12.74311147 0.45511147 9.10222187-0.91022187 17.74933333-2.73066667 26.39644373z" fill="#D12C2C" p-id="19709"></path><path d="M488.61639147 248.59534187c-48.24177813 0-88.74666667 39.59466667-88.74666667 90.112s40.96 91.9324448 88.74666667 91.9324448" fill="#FFFFFF" p-id="19710"></path><path d="M488.61639147 276.35712c-40.96 0-73.728 34.5884448-73.728 77.36888853s33.22311147 76.91377813 73.728 76.91377814" fill="#F8DF1F" p-id="19711"></path><path d="M400.3248352 334.61134187c0-51.4275552 39.59466667-92.84266667 88.74666667-92.84266667v-6.82666667c-52.79288853 0-95.57333333 44.60088853-95.57333334 99.66933334s42.32533333 99.21422187 95.57333334 99.21422293v-6.82666667c-49.152 0-88.74666667-41.41511147-88.74666667-92.38755626z" fill="#D12C2C" p-id="19712"></path><path d="M452.20750187 278.6326752l33.67822293 46.42133333 5.46133333-4.096-32.768-45.5111104c8.192-3.64088853 17.29422187-5.9164448 27.30666667-5.9164448v-7.28177813c-39.59466667 0-71.9075552 32.31288853-71.90755627 71.90755627s31.85777813 72.36266667 71.4524448 72.36266666v-6.82666666c-9.55733333 0-18.6595552-2.2755552-27.30666666-5.9164448l33.22311146-47.3315552-5.46133333-4.096-33.67822293 48.24177706c-10.92266667-6.82666667-20.02488853-16.384-25.48622187-28.21688853l59.6195552-24.12088853 1.8204448 0.91022186 0.91022187-1.8204448 1.8204448-0.4551104-0.91022187-1.8204448 0.91022187-2.2755552-2.2755552-0.91022293-0.45511147-1.82044373-1.8204448 0.4551104-59.6195552-24.576c5.46133333-10.92266667 14.5635552-20.93511147 25.48622187-27.30666667z m25.48622293 55.97866667l-53.248 21.39022293c-2.2755552-6.82666667-3.64088853-14.1084448-3.6408896-21.39022293 0-7.73688853 1.36533333-15.01866667 3.6408896-21.39022187l53.248 21.39022187z" fill="#D12C2C" p-id="19713"></path><path d="M484.52039147 234.94200853h6.82666666v198.88355627h-6.82666666zM683.57688853 350.4355552l6.82666667 0.91022293v1.82044374c0 1.36533333-0.45511147 2.73066667-0.4551104 4.096-0.45511147 4.55111147-1.36533333 9.10222187-2.27555627 13.19822293-1.8204448 10.4675552-4.096 17.29422187-6.3715552 20.02488853l-5.00622186-4.55111146c1.36533333-1.36533333 3.18577813-7.73688853 4.5511104-16.384 0.91022187-4.096 1.36533333-8.192 1.8204448-12.7431104 0-1.36533333 0.45511147-2.73066667 0.45511146-4.096 0.45511147-1.8204448 0.45511147-2.2755552 0.4551104-2.27555627z" fill="#D12C2C" p-id="19714"></path></svg>