<?xml version="1.0" standalone="no"?><!DOCTYPE svg PUBLIC "-//W3C//DTD SVG 1.1//EN" "http://www.w3.org/Graphics/SVG/1.1/DTD/svg11.dtd"><svg t="1726234152765" class="icon" viewBox="0 0 1024 1024" version="1.1" xmlns="http://www.w3.org/2000/svg" p-id="18623" xmlns:xlink="http://www.w3.org/1999/xlink" width="200" height="200"><path d="M245.57 794.13h-164V250.5h488.6a8.35 8.35 0 1 0 0-16.69H81.55V100.54h565.68v229.11a16.7 16.7 0 0 0 33.39 0V83.84a16.7 16.7 0 0 0-16.69-16.7H64.85a16.7 16.7 0 0 0-16.7 16.7v727a16.7 16.7 0 0 0 16.7 16.69h180.72a16.7 16.7 0 0 0 0-33.39z" fill="#3A3F44" p-id="18624"></path><path d="M122.81 167.53a25.66 25.66 0 1 0 25.66-25.65 25.69 25.69 0 0 0-25.66 25.65z m34.62 0a9 9 0 1 1-9-9 9 9 0 0 1 9 9zM202.6 167.53a25.66 25.66 0 1 0 25.66-25.65 25.69 25.69 0 0 0-25.66 25.65z m34.62 0a9 9 0 1 1-9-9 9 9 0 0 1 9 9zM959.15 718H859.7a220.4 220.4 0 0 0-27.36-91.13l78.24-51.51a16.7 16.7 0 1 0-18.37-27.89L813.94 599a223.85 223.85 0 0 0-61.52-54.75v-19.14a114.21 114.21 0 0 0-228.41 0v19.17A223.78 223.78 0 0 0 462.48 599l-78.26-51.53a16.7 16.7 0 1 0-18.37 27.89l78.22 51.51A220.7 220.7 0 0 0 416.71 718h-99.44a16.7 16.7 0 1 0 0 33.39h99.44a220.65 220.65 0 0 0 27.36 91.12l-78.22 51.51A16.7 16.7 0 0 0 384.22 922l78.26-51.53a221.85 221.85 0 0 0 351.46 0L892.21 922a16.7 16.7 0 0 0 18.37-27.89l-78.24-51.51a220.35 220.35 0 0 0 27.36-91.12h99.45a16.7 16.7 0 1 0 0-33.39zM557.4 525.11a80.82 80.82 0 0 1 161.63 0v2.72a222.1 222.1 0 0 0-161.63 0zM449.48 734.73c0-98.44 75.76-179.51 172-188v376c-96.24-8.5-172-89.56-172-188z m205.42 188v-376c96.27 8.48 172 89.55 172 188s-75.73 179.5-172 187.99zM155.87 323.59a8.35 8.35 0 1 0 0 16.7H355a8.35 8.35 0 0 0 0-16.7zM306.22 395.06a8.35 8.35 0 0 0-8.35-8.34h-142a8.35 8.35 0 1 0 0 16.69h142a8.35 8.35 0 0 0 8.35-8.35zM259.59 458.18a8.35 8.35 0 0 0-8.35-8.35h-95.37a8.35 8.35 0 1 0 0 16.69h95.37a8.34 8.34 0 0 0 8.35-8.34zM227.92 513h-72a8.35 8.35 0 0 0 0 16.7h72a8.35 8.35 0 1 0 0-16.7zM227.92 576.06h-72a8.35 8.35 0 1 0 0 16.7h72a8.35 8.35 0 0 0 0-16.7zM227.92 639.19h-72a8.35 8.35 0 1 0 0 16.69h72a8.35 8.35 0 1 0 0-16.69zM227.92 702.3h-72a8.35 8.35 0 1 0 0 16.69h72a8.35 8.35 0 1 0 0-16.69z" fill="#3A3F44" p-id="18625"></path></svg>